REM DIRINDEX 1\2\5,1\2\6,1\2\7,1\2\8,1\3\9,1\3\10,1\3\11,1\4\12,1\4\13,1\4\14,1\4\15,1\4\16
REM DIRNAME cjc034,folder01,folder02,folder03,folder04,folder05,folder06,folder07,folder08,folder09,folder10,folder11,folder12,folder13,folder14,folder15
TITLE ""
FILE "1200_sec02_0604_0615.mp3" MP3
  TRACK 01 AUDIO
    TITLE "0:"
    INDEX 01 00:00:00
  TRACK 02 AUDIO
    TITLE "12:cjc034_06065"
    INDEX 01 00:00:19
  TRACK 03 AUDIO
    TITLE "0:"
    INDEX 01 00:02:30
  TRACK 04 AUDIO
    TITLE "13:cjc034_06066"
    INDEX 01 00:02:63
  TRACK 05 AUDIO
    TITLE "0:"
    INDEX 01 00:05:32
  TRACK 06 AUDIO
    TITLE "14:cjc034_06067"
    INDEX 01 00:05:67
  TRACK 07 AUDIO
    TITLE "0:"
    INDEX 01 00:07:74
  TRACK 08 AUDIO
    TITLE "15:cjc034_06068"
    INDEX 01 00:08:36
  TRACK 09 AUDIO
    TITLE "0:"
    INDEX 01 00:12:20
  TRACK 10 AUDIO
    TITLE "12:cjc034_06069"
    INDEX 01 00:13:55
  TRACK 11 AUDIO
    TITLE "0:"
    INDEX 01 00:15:30
  TRACK 12 AUDIO
    TITLE "13:cjc034_06070"
    INDEX 01 00:15:64
  TRACK 13 AUDIO
    TITLE "0:"
    INDEX 01 00:18:15
  TRACK 14 AUDIO
    TITLE "14:cjc034_06071"
    INDEX 01 00:18:50
  TRACK 15 AUDIO
    TITLE "0:"
    INDEX 01 00:20:24
  TRACK 16 AUDIO
    TITLE "15:cjc034_06072"
    INDEX 01 00:20:57
  TRACK 17 AUDIO
    TITLE "0:"
    INDEX 01 00:23:63
  TRACK 18 AUDIO
    TITLE "12:cjc034_06073"
    INDEX 01 00:25:27
  TRACK 19 AUDIO
    TITLE "0:"
    INDEX 01 00:26:62
  TRACK 20 AUDIO
    TITLE "13:cjc034_06074"
    INDEX 01 00:27:22
  TRACK 21 AUDIO
    TITLE "0:"
    INDEX 01 00:28:51
  TRACK 22 AUDIO
    TITLE "14:cjc034_06075"
    INDEX 01 00:29:13
  TRACK 23 AUDIO
    TITLE "0:"
    INDEX 01 00:30:48
  TRACK 24 AUDIO
    TITLE "15:cjc034_06076"
    INDEX 01 00:31:12
  TRACK 25 AUDIO
    TITLE "0:"
    INDEX 01 00:35:47
  TRACK 26 AUDIO
    TITLE "12:cjc034_06077"
    INDEX 01 00:37:05
  TRACK 27 AUDIO
    TITLE "0:"
    INDEX 01 00:38:51
  TRACK 28 AUDIO
    TITLE "13:cjc034_06078"
    INDEX 01 00:39:07
  TRACK 29 AUDIO
    TITLE "0:"
    INDEX 01 00:40:15
  TRACK 30 AUDIO
    TITLE "14:cjc034_06079"
    INDEX 01 00:40:50
  TRACK 31 AUDIO
    TITLE "0:"
    INDEX 01 00:42:23
  TRACK 32 AUDIO
    TITLE "15:cjc034_06080"
    INDEX 01 00:42:55
  TRACK 33 AUDIO
    TITLE "0:"
    INDEX 01 00:46:15
  TRACK 34 AUDIO
    TITLE "12:cjc034_06081"
    INDEX 01 00:47:46
  TRACK 35 AUDIO
    TITLE "0:"
    INDEX 01 00:49:39
  TRACK 36 AUDIO
    TITLE "13:cjc034_06082"
    INDEX 01 00:49:72
  TRACK 37 AUDIO
    TITLE "0:"
    INDEX 01 00:51:22
  TRACK 38 AUDIO
    TITLE "14:cjc034_06083"
    INDEX 01 00:51:54
  TRACK 39 AUDIO
    TITLE "0:"
    INDEX 01 00:53:45
  TRACK 40 AUDIO
    TITLE "15:cjc034_06084"
    INDEX 01 00:54:03
  TRACK 41 AUDIO
    TITLE "0:"
    INDEX 01 00:57:72
  TRACK 42 AUDIO
    TITLE "16:cjc034_06085"
    INDEX 01 00:59:32
  TRACK 43 AUDIO
    TITLE "0:"
    INDEX 01 01:04:01
  TRACK 44 AUDIO
    TITLE "12:cjc034_06086"
    INDEX 01 01:05:05
  TRACK 45 AUDIO
    TITLE "0:"
    INDEX 01 01:11:51
  TRACK 46 AUDIO
    TITLE "13:cjc034_06087"
    INDEX 01 01:12:13
  TRACK 47 AUDIO
    TITLE "0:"
    INDEX 01 01:13:32
  TRACK 48 AUDIO
    TITLE "14:cjc034_06088"
    INDEX 01 01:13:65
  TRACK 49 AUDIO
    TITLE "0:"
    INDEX 01 01:20:36
  TRACK 50 AUDIO
    TITLE "15:cjc034_06089"
    INDEX 01 01:21:00
  TRACK 51 AUDIO
    TITLE "0:"
    INDEX 01 01:25:64
  TRACK 52 AUDIO
    TITLE "12:cjc034_06090"
    INDEX 01 01:27:20
  TRACK 53 AUDIO
    TITLE "0:"
    INDEX 01 01:29:03
  TRACK 54 AUDIO
    TITLE "13:cjc034_06091"
    INDEX 01 01:29:35
  TRACK 55 AUDIO
    TITLE "0:"
    INDEX 01 01:32:21
  TRACK 56 AUDIO
    TITLE "14:cjc034_06092"
    INDEX 01 01:32:55
  TRACK 57 AUDIO
    TITLE "0:"
    INDEX 01 01:34:36
  TRACK 58 AUDIO
    TITLE "15:cjc034_06093"
    INDEX 01 01:34:67
  TRACK 59 AUDIO
    TITLE "0:"
    INDEX 01 01:39:00
  TRACK 60 AUDIO
    TITLE "12:cjc034_06094"
    INDEX 01 01:40:35
  TRACK 61 AUDIO
    TITLE "0:"
    INDEX 01 01:43:39
  TRACK 62 AUDIO
    TITLE "13:cjc034_06095"
    INDEX 01 01:43:70
  TRACK 63 AUDIO
    TITLE "0:"
    INDEX 01 01:45:04
  TRACK 64 AUDIO
    TITLE "14:cjc034_06096"
    INDEX 01 01:45:40
  TRACK 65 AUDIO
    TITLE "0:"
    INDEX 01 01:48:42
  TRACK 66 AUDIO
    TITLE "15:cjc034_06097"
    INDEX 01 01:49:02
  TRACK 67 AUDIO
    TITLE "0:"
    INDEX 01 01:51:72
  TRACK 68 AUDIO
    TITLE "12:cjc034_06098"
    INDEX 01 01:53:29
  TRACK 69 AUDIO
    TITLE "0:"
    INDEX 01 01:56:71
  TRACK 70 AUDIO
    TITLE "13:cjc034_06099"
    INDEX 01 01:57:33
  TRACK 71 AUDIO
    TITLE "0:"
    INDEX 01 01:58:60
  TRACK 72 AUDIO
    TITLE "14:cjc034_06100"
    INDEX 01 01:59:18
  TRACK 73 AUDIO
    TITLE "0:"
    INDEX 01 02:02:60
  TRACK 74 AUDIO
    TITLE "15:cjc034_06101"
    INDEX 01 02:03:20
  TRACK 75 AUDIO
    TITLE "0:"
    INDEX 01 02:08:09
  TRACK 76 AUDIO
    TITLE "12:cjc034_06102"
    INDEX 01 02:09:42
  TRACK 77 AUDIO
    TITLE "0:"
    INDEX 01 02:15:52
  TRACK 78 AUDIO
    TITLE "13:cjc034_06103"
    INDEX 01 02:16:11
  TRACK 79 AUDIO
    TITLE "0:"
    INDEX 01 02:17:69
  TRACK 80 AUDIO
    TITLE "14:cjc034_06104"
    INDEX 01 02:18:27
  TRACK 81 AUDIO
    TITLE "0:"
    INDEX 01 02:24:36
  TRACK 82 AUDIO
    TITLE "15:cjc034_06105"
    INDEX 01 02:24:69
  TRACK 83 AUDIO
    TITLE "0:"
    INDEX 01 02:29:29
  TRACK 84 AUDIO
    TITLE "12:cjc034_06106"
    INDEX 01 02:30:64
  TRACK 85 AUDIO
    TITLE "0:"
    INDEX 01 02:34:32
  TRACK 86 AUDIO
    TITLE "13:cjc034_06107"
    INDEX 01 02:34:66
  TRACK 87 AUDIO
    TITLE "0:"
    INDEX 01 02:38:30
  TRACK 88 AUDIO
    TITLE "14:cjc034_06108"
    INDEX 01 02:38:65
  TRACK 89 AUDIO
    TITLE "0:"
    INDEX 01 02:42:36
  TRACK 90 AUDIO
    TITLE "15:cjc034_06109"
    INDEX 01 02:42:67
  TRACK 91 AUDIO
    TITLE "0:"
    INDEX 01 02:47:41
  TRACK 92 AUDIO
    TITLE "12:cjc034_06110"
    INDEX 01 02:49:02
  TRACK 93 AUDIO
    TITLE "0:"
    INDEX 01 02:51:48
  TRACK 94 AUDIO
    TITLE "13:cjc034_06111"
    INDEX 01 02:52:07
  TRACK 95 AUDIO
    TITLE "0:"
    INDEX 01 02:53:69
  TRACK 96 AUDIO
    TITLE "14:cjc034_06112"
    INDEX 01 02:54:25
  TRACK 97 AUDIO
    TITLE "0:"
    INDEX 01 02:57:00
  TRACK 98 AUDIO
    TITLE "15:cjc034_06113"
    INDEX 01 02:57:31
  TRACK 99 AUDIO
    TITLE "0:"
    INDEX 01 03:01:66
